<?xml version="1.0" encoding="UTF-8"?>
<svg id="Layer_2" data-name="Layer 2" xmlns="http://www.w3.org/2000/svg" viewBox="0 0 383.32 383.25">
  <g id="Layer_1-2" data-name="Layer 1">
    <g>
      <path d="M373.94,184.8c-2.96,.26-5.97,.05-8.96,.05-14.19,0-28.39-.03-42.58,.02-4.98,.02-7.92,3.19-7.38,7.71,.44,3.74,3.15,5.83,7.76,5.84,17.06,.03,34.11-.1,51.17,.09,4.14,.05,7.22-1.09,9.36-4.63v-4.49c-2.15-3.52-5.22-4.97-9.37-4.6Z"/>
      <path d="M184.82,17.56c0,14.44-.03,28.88,.02,43.31,.02,4.88,2.94,7.73,7.32,7.43,3.93-.27,6.24-3.05,6.25-7.78,.03-17.05-.09-34.1,.09-51.15,.04-4.13-1.07-7.23-4.61-9.38h-4.49c-3.58,2.11-5,5.2-4.63,9.35,.24,2.72,.05,5.47,.05,8.21Z"/>
      <path d="M191.82,82.21c-60.47-.14-109.48,48.68-109.66,109.22-.18,60.36,48.74,109.46,109.26,109.64,60.42,.18,109.51-48.72,109.64-109.23,.14-60.48-48.7-109.49-109.24-109.62Zm-.2,205.25c-53-.01-95.86-42.91-95.82-95.92,.04-53,42.97-95.8,96-95.72,53.01,.08,95.8,43.07,95.65,96.08-.15,52.84-43,95.56-95.83,95.55Z"/>
      <path d="M68.35,191.76c.06-4.26-2.9-6.9-7.93-6.9-17.46-.03-34.92-.03-52.39,0-4.98,0-8.07,2.71-8.03,6.87,.04,4.13,3.12,6.68,8.18,6.7,8.61,.03,17.21,0,25.82,0,8.86,0,17.71,.03,26.57-.01,4.87-.02,7.72-2.52,7.78-6.66Z"/>
      <path d="M191.57,314.96c-4.26,.03-6.72,2.92-6.74,8.07-.03,8.6,0,17.2,0,25.8,0,8.85-.03,17.7,.01,26.55,.02,4.74,2.66,7.78,6.65,7.87,4.14,.09,6.92-3.02,6.93-7.96,.03-17.45,.03-34.9,0-52.35,0-5.08-2.57-8.01-6.84-7.98Z"/>
      <path d="M288.82,104.12c12.66-12.57,25.27-25.19,37.81-37.88,1.32-1.34,2.03-3.29,3.44-5.65-1.74-2.06-3.01-4.46-5.01-5.71-2.87-1.81-5.76-.6-8.09,1.73-12.61,12.62-25.24,25.22-37.8,37.89-3.1,3.13-3.12,7.24-.36,10,2.76,2.75,6.88,2.73,10.01-.38Z"/>
      <path d="M289.21,279.53c-1.1-1.09-2.57-2.1-4.05-2.48-3.06-.78-5.75,.23-7.36,3.06-1.84,3.25-1.11,6.21,1.49,8.81,12.52,12.52,25.03,25.05,37.55,37.57,.61,.61,1.28,1.21,2.02,1.65,4.47,2.64,10.2-.56,10.31-6.81-.58-.97-1.33-3.03-2.73-4.45-12.34-12.52-24.77-24.95-37.25-37.35Z"/>
      <path d="M94.88,104.49c.26,.26,.56,.66,.87,.69,2.35,.22,5.04,1.13,6.98,.3,1.9-.81,3.03-3.41,4.77-5.58-1.72-2.58-2.72-4.73-4.28-6.32-9.18-9.34-18.48-18.56-27.75-27.82-3.27-3.26-6.42-6.65-9.87-9.71-4.19-3.7-10.52-1.67-11.2,3.69-.24,1.93,.59,4.65,1.94,6.03,12.73,13.03,25.67,25.84,38.55,38.72Z"/>
      <path d="M98.59,276.8c-.92,.56-3.02,1.39-4.55,2.84-5.24,4.98-10.28,10.17-15.39,15.29-7.4,7.41-14.8,14.82-22.19,22.24-2.11,2.12-3.33,4.84-1.72,7.42,1.18,1.88,3.47,3.86,5.52,4.18,1.91,.31,4.67-.99,6.18-2.47,12.58-12.28,24.97-24.76,37.39-37.19,.7-.7,1.36-1.49,1.82-2.35,2.43-4.49-.7-9.82-7.07-9.97Z"/>
      <path d="M250.98,152.44c-2.68-2.44-5.57-2.05-8.69-.76-8.74,3.61-17.57,7.01-26.3,10.64-2.21,.92-3.85,.74-5.8-.66-4.34-3.13-8.96-5.88-13.3-9.02-3.67-2.66-6.98-2.55-10.59,.07-4.23,3.07-8.73,5.78-12.98,8.83-2.03,1.45-3.73,1.71-6.12,.7-8.71-3.68-17.56-7.03-26.31-10.62-2.98-1.22-5.76-1.65-8.39,.59-2.79,2.37-2.63,5.35-1.82,8.56,4.19,16.65,8.31,33.33,12.47,49.99,1.77,7.12,3.29,8.31,10.58,8.32,12.59,0,25.18,0,37.77,0,12.97,0,25.93,.02,38.9,0,6.18-.01,7.96-1.38,9.45-7.3,4.28-17.02,8.51-34.04,12.8-51.06,.78-3.08,.9-5.96-1.66-8.29Zm-23.56,52.65h-71.55c-2.96-11.88-5.91-23.66-9.05-36.26,6.78,2.69,12.94,4.88,18.86,7.58,4.36,1.99,7.99,1.69,11.8-1.21,3.76-2.86,7.93-5.19,11.75-7.98,1.87-1.37,3.19-1.18,4.97,.07,4.27,3.02,8.74,5.77,13.03,8.77,2.82,1.97,5.58,2.29,8.78,.95,6.53-2.73,13.15-5.25,20.51-8.17-3.17,12.64-6.13,24.42-9.1,36.24Z"/>
      <path d="M232.26,232.78c-13.48-.05-26.95-.02-40.43-.02-13.48,0-26.95-.03-40.43,.01-4.66,.01-7.7,2.84-7.64,6.87,.06,3.89,3.03,6.67,7.46,6.68,26.95,.04,53.91,.03,80.86-.02,1.32,0,2.8-.27,3.93-.89,2.79-1.54,3.98-4.09,3.37-7.25-.63-3.27-3.36-5.36-7.12-5.38Z"/>
    </g>
  </g>
</svg>