<?xml version="1.0" encoding="UTF-8"?>
<svg id="Layer_2" data-name="Layer 2" xmlns="http://www.w3.org/2000/svg" viewBox="0 0 257.17 168.94">
  <g id="Layer_1-2" data-name="Layer 1">
    <g>
      <path d="M256.74,113.29c-1.04-16.94-4.03-33.54-8.74-49.82-4.53-15.65-10.09-30.85-20.28-43.9-5.48-7.02-11.83-12.98-20.22-16.42-9.43-3.86-19.15-3.81-28.88-1.77-11.78,2.48-23.42,5.58-35.22,7.96-5.85,1.18-11.99,2.25-17.85,1.72-8.44-.76-16.75-3.02-25.12-4.64-10.58-2.04-21.08-4.72-31.75-5.95-12.03-1.39-22.75,2.66-31.72,10.98-9.01,8.36-15.36,18.56-20.02,29.77C5.41,68.91-.14,97.84,0,127.8c.04,8.61,.97,17.21,4.29,25.35,4.89,11.96,14.77,17.51,27.45,15.33,7.14-1.23,13.46-4.47,19.56-8.16,10-6.04,18.98-13.44,27.57-21.32,5.62-5.16,11.8-9.28,19.07-11.76,13.14-4.48,26.64-5.6,40.37-4.39,16.11,1.42,30.5,6.58,42.41,18.23,6.18,6.05,13.35,11.16,20.42,16.22,7.79,5.58,16.21,10.09,25.95,11.35,9.81,1.27,17.59-2.06,22.97-10.5,3.06-4.8,4.74-10.14,5.62-15.72,.61-3.87,1-7.77,1.49-11.66v-15.58c-.15-.64-.39-1.27-.43-1.91Zm-11.67,17.99c-.29,6.63-1.2,13.19-4.23,19.21-2.85,5.68-7.22,7.73-13.44,6.65-7.79-1.35-14.58-5.06-20.74-9.67-7.96-5.96-15.66-12.3-23.12-18.88-7.25-6.4-15.41-10.99-24.58-13.64-22.18-6.41-44.25-6.03-66.1,1.7-7.66,2.71-14.51,6.79-20.58,12.21-8.49,7.59-16.93,15.3-26.88,20.96-4.74,2.7-9.89,4.98-15.13,6.44-7.48,2.09-12.92-1.22-15.33-8.69-1.2-3.71-2.02-7.6-2.55-11.47-.54-3.88-.51-7.84-.68-10.9,.58-27.84,5.55-53.91,15.9-78.84,3.87-9.31,8.87-18,16.38-25.01,8.31-7.75,18.28-10.57,29.21-8.8,10.46,1.7,20.87,3.99,31.09,6.79,16.7,4.59,33.12,4.14,49.76-.3,10.15-2.71,20.5-4.92,30.9-6.42,14.23-2.05,25.44,3.85,33.93,15.16,8.88,11.84,14.04,25.41,17.88,39.52,5.7,20.92,9.24,42.16,8.3,63.95Z"/>
      <path d="M89.9,49.44c-1.74-.32-2.46-.87-2.83-2.71-1.72-8.5-9.24-14.55-17.95-14.69-8.38-.14-16.37,5.9-18.21,14.1-.48,2.11-1.17,2.88-3.36,3.38-6.53,1.51-11.26,5.53-13.42,11.96-3.71,11,2.88,22.09,14.27,24.37,1.09,.22,2.07,.25,2.22,1.78,.8,8.13,9.01,15.5,18.28,15.49,8.86-.01,16.44-6.29,18.27-15.32,.32-1.56,1.1-1.74,2.31-1.99,8.68-1.79,14.86-9.25,14.95-17.99,.09-8.71-6.25-16.83-14.54-18.38Zm-2.76,24.72c-1.73,.21-3.51,.08-5.26,.2-3.91,.26-6.09,2.57-6.19,6.44-.04,1.5,.07,3.02-.11,4.51-.47,3.8-3.29,6.07-7.12,5.88-3.59-.18-6.1-2.78-6.25-6.54-.06-1.5,.06-3.02-.05-4.51-.27-3.78-2.75-6.07-6.55-6.15-1.5-.03-3.02,.06-4.51-.05-3.47-.27-5.98-2.84-6.13-6.15-.15-3.54,2.06-6.26,5.68-6.76,1.56-.22,3.17-.08,4.76-.15,4.39-.2,6.73-2.62,6.78-6.98,.02-1.5-.08-3.02,.07-4.51,.34-3.23,2.93-5.58,6.23-5.81,3.34-.23,6.08,1.73,6.78,5.04,.33,1.53,.37,3.14,.4,4.72,.08,5.2,2.34,7.51,7.47,7.54,1.17,0,2.34-.03,3.51,.04,3.66,.22,6.19,2.89,6.23,6.54,.05,3.6-2.17,6.28-5.75,6.72Z"/>
      <path d="M184.39,55.96c6.2-.04,11.08-5,11.04-11.24-.04-6.21-5-11.08-11.24-11.04-6.22,.05-11.08,4.98-11.04,11.23,.04,6.22,4.98,11.08,11.23,11.04Z"/>
      <path d="M161.64,56.4c-6.16-.05-11.21,4.89-11.3,11.07-.09,6.1,4.94,11.21,11.09,11.27,6.14,.06,11.25-4.94,11.3-11.07,.05-6.13-4.96-11.22-11.09-11.27Z"/>
      <path d="M207.11,56.4c-6.17-.03-11.22,4.95-11.26,11.1-.04,6.17,4.91,11.18,11.1,11.24,6.15,.06,11.21-4.92,11.26-11.09,.05-6.15-4.96-11.22-11.1-11.25Z"/>
      <path d="M184.34,79.11c-6.13-.04-11.17,4.99-11.19,11.16-.02,6.18,4.94,11.23,11.09,11.27,6.1,.04,11.18-5.02,11.2-11.17,.02-6.18-4.95-11.23-11.09-11.27Z"/>
    </g>
  </g>
</svg>