<?xml version="1.0" encoding="UTF-8"?>
<svg id="Layer_2" data-name="Layer 2" xmlns="http://www.w3.org/2000/svg" viewBox="0 0 511.05 511.24">
  <g id="Layer_1-2" data-name="Layer 1">
    <g>
      <path d="M431.76,65.81c.05,10.48,3.23,13.69,13.72,13.71,17.29,.03,34.57-.09,51.86,.06,6.17,.06,11.06-1.6,13.71-7.6V7.09C507.95,1.51,503.13-.09,496.92,0c-17.3,.27-34.6,.08-51.9,.1-9.82,0-13.17,3.35-13.25,13.17-.04,5.43,0,10.87,0,16.35h-136.47c0-5.69,.04-11.12,0-16.56-.08-9.29-3.76-12.95-13.07-12.96-17.8-.02-35.6-.02-53.4,0-9.27,.01-12.96,3.7-13.03,13-.04,5.43,0,10.86,0,16.39H79.3c0-6.01,.09-11.64-.02-17.26-.16-8.54-3.76-12.1-12.28-12.12-18.13-.05-36.26-.04-54.39,0C3.56,.13,.04,3.74,.02,12.96,0,30.93,0,48.9,.02,66.87c.02,8.82,3.56,12.57,12.32,12.62,18.13,.11,36.26,.1,54.39,0,9.1-.05,12.46-3.59,12.55-12.87,.06-5.45,.01-10.91,.01-16.38h80.86C80.42,91.47,37.19,156.44,29.44,245.69c-5.52,0-11.14-.03-16.76,0-9.07,.05-12.64,3.63-12.66,12.79-.03,17.97-.03,35.94,0,53.91,.02,8.84,3.55,12.63,12.25,12.69,18.3,.11,36.6,.12,54.89,0,8.49-.06,12.06-3.72,12.1-12.29,.09-18.3,.1-36.6,0-54.9-.05-8.59-3.71-12.11-12.21-12.19-5.61-.05-11.22,0-16.84,0,3.64-96.21,78.83-176.8,165.55-191.61,0,4.37-.06,8.67,.01,12.96,.14,8.48,3.74,12.38,12.07,12.44,18.46,.13,36.93,.14,55.39,0,8.31-.06,11.9-3.97,12.03-12.47,.07-4.29,.01-8.58,.01-12.96,88.31,15.32,162.17,97.05,165.52,191.64-5.29,0-10.57-.01-15.85,0-9.79,.03-13.16,3.36-13.19,13.23-.05,17.64-.04,35.27,0,52.91,.03,9.89,3.33,13.24,13.16,13.27,17.63,.06,35.27-.08,52.9,.07,6.07,.05,10.66-1.85,13.22-7.6v-64.89c-3.11-5.57-7.91-7.45-14.13-7.06-5.1,.33-10.23,.07-15.28,.07-7.77-89.25-51.01-154.3-130.99-195.56h81.1c0,5.23-.02,10.46,0,15.69Zm20.37-45.48h38.76V59.25h-38.76V20.33ZM58.97,59.26H20.22V20.31H58.97V59.26Zm0,206.65v38.93H20.21v-38.93H58.96ZM274.98,59.23h-38.98V20.43h38.98V59.23Zm215.87,206.75v38.77h-38.84v-38.77h38.84Z"/>
      <path d="M265.04,111.56c-4.93-8.94-14.05-8.93-19.01,0-13.31,23.97-26.5,48-39.66,72.05-3.54,6.46-2.27,12.26,3.01,15.18,5.29,2.93,10.77,.87,14.41-5.64,6.33-11.31,12.53-22.69,18.81-34.03,.67-1.21,1.46-2.35,2.53-4.06,.25,1.25,.42,1.69,.42,2.14,.02,22.29-.06,44.58,.11,66.88,.02,3.1-1.6,3.78-3.82,4.77-14.8,6.6-22.79,22.49-19.32,38.2,3.41,15.46,17.29,26.61,33.09,26.58,15.81-.03,29.65-11.21,33-26.68,3.41-15.75-4.53-31.61-19.47-38.06-3.06-1.32-3.69-2.92-3.67-5.91,.13-16.97,.06-33.94,.06-50.91v-17.6c1.21,1.77,1.69,2.35,2.05,2.99,21.57,39.14,43.09,78.32,64.77,117.4,1.61,2.91,.63,4.43-1.23,6.41-17.74,18.87-30.09,40.84-37.37,65.66-1.39,4.73-2.43,9.56-3.63,14.34h-68.97c-.24-.49-.44-.76-.5-1.06-6.41-30.49-20.08-57.19-41.4-79.98-.93-1-1.06-3.71-.4-5.06,2.68-5.52,6.12-10.69,8.64-16.28,1.27-2.83,2.41-6.83,1.33-9.32-1.24-2.85-4.67-5.6-7.73-6.62-4.4-1.46-8.03,1.37-10.26,5.26-4.45,7.79-8.71,15.69-13.04,23.55-4.59,8.34-4.25,11.3,2.58,17.93,11.81,11.46,21.44,24.49,28.68,39.27,5.02,10.25,9.03,20.86,11.26,32.68-4.15,0-7.82-.28-11.43,.05-13.14,1.18-23.33,9.95-26.65,22.68-3.1,11.87,1.73,24.66,12.44,31.79,2.49,1.66,3.1,3.37,3.09,6.06-.07,24.95,.09,49.91-.13,74.86-.06,6.21,1.51,11.03,7.08,14.14h5.99c5.57-3.11,7.14-7.93,7.08-14.13-.23-23.28-.09-46.56-.09-69.84v-5.62h115.78v5.12c0,23.45,.14,46.89-.09,70.34-.06,6.2,1.51,11.03,7.08,14.13h5.99c5.58-3.11,7.14-7.93,7.08-14.14-.22-24.95-.15-49.91,.02-74.86,.01-1.92,1.15-4.53,2.64-5.62,11.23-8.19,16.06-20.68,12.41-33.18-3.85-13.19-14.71-21.48-28.81-21.93-2.91-.09-5.82-.01-8.86-.01,.16-1.14,.2-1.63,.3-2.1,.2-.98,.41-1.95,.66-2.92,6.83-26.03,19.88-48.4,39.24-67.12,6.06-5.86,6.76-9.31,3.18-15.82-29.7-54.02-59.42-108.02-89.22-161.98Zm4.43,148.24c0,7.63-6.29,13.88-13.96,13.87-7.66,0-13.93-6.27-13.92-13.9,0-7.58,6.39-13.97,13.95-13.96,7.56,.01,13.93,6.41,13.92,13.99Zm46.4,121.68c1.98,0,4.02-.02,5.94,.39,4.85,1.03,7.8,4.8,7.8,9.58,0,4.79-2.95,8.53-7.81,9.58-1.76,.38-3.63,.38-5.45,.38-20.44,.02-40.88,.02-61.33,.02s-40.22,.03-60.33-.03c-2.3,0-4.71-.12-6.86-.84-4.22-1.4-6.36-4.66-6.36-9.12,0-4.46,2.14-7.74,6.37-9.1,2.31-.74,4.9-.84,7.36-.84,40.22-.05,80.44-.04,120.66-.02Z"/>
      <path d="M196.36,231.71c5.31-.05,9.81-4.64,9.75-9.95-.06-5.29-4.71-9.91-9.92-9.86-5.26,.05-9.73,4.67-9.69,10.02,.04,5.39,4.52,9.84,9.86,9.79Z"/>
    </g>
  </g>
</svg>