<?xml version="1.0" encoding="UTF-8"?>
<svg id="Layer_2" data-name="Layer 2" xmlns="http://www.w3.org/2000/svg" viewBox="0 0 351.79 350.41">
  <g id="Layer_1-2" data-name="Layer 1">
    <path d="M.09,175.06c0-26.7,.12-53.4-.09-80.1-.05-5.98,1.96-9.56,7.48-12.3C61.53,55.85,115.47,28.84,169.38,1.75c4.59-2.31,8.43-2.34,13.01-.04,53.89,27.07,107.83,54.06,161.85,80.89,5.45,2.71,7.56,6.26,7.54,12.29-.16,53.53-.16,107.05,0,160.58,.02,6.22-2.27,9.76-7.81,12.51-53.91,26.76-107.74,53.69-161.52,80.7-4.56,2.29-8.41,2.35-13.01,.04-54.24-27.26-108.54-54.39-162.89-81.44C1.92,264.96,.01,261.76,.04,256.65c.12-27.2,.06-54.4,.06-81.6ZM16.4,104.62c-.11,1.1-.2,1.59-.2,2.08,0,48.29,.01,96.58-.08,144.87,0,2.41,1.22,3.17,2.98,4.05,48.39,24.15,96.77,48.34,145.16,72.51,1.02,.51,2.08,.95,3.57,1.63v-3.68c0-47.54-.02-95.08,.05-142.62,0-2.43-.66-3.72-2.93-4.85-48.43-24.11-96.81-48.33-145.2-72.51-.97-.48-1.98-.87-3.36-1.47Zm167.54,225.15c1.71-.77,2.84-1.22,3.92-1.76,48.17-24.06,96.32-48.16,144.53-72.15,2.51-1.25,3.27-2.69,3.26-5.42-.09-47.29-.06-94.57-.07-141.86,0-1.19-.11-2.38-.19-3.95-1.27,.54-2.17,.87-3.03,1.3-9.92,4.95-19.81,9.97-29.79,14.82-2.21,1.07-3.01,2.33-2.99,4.83,.12,19.84,.06,39.68,.06,59.51,0,6.49-.03,12.98,0,19.46,.02,3.43-1.28,6.09-4.36,7.67-3.1,1.59-6.03,1-8.78-.98-2.12-1.53-4.26-3.05-6.39-4.57-4.73-3.37-9.46-6.75-14.39-10.26-1.69,2.42-3.11,4.45-4.52,6.48-8.73,12.61-17.44,25.24-26.21,37.82-3.12,4.47-7.73,5.58-11.62,2.98-2.94-1.96-3.52-4.87-3.52-8.17,.04-22.96,.02-45.91,.01-68.87,0-1.3-.11-2.6-.19-4.37-11.06,5.5-21.58,10.87-32.24,15.96-2.79,1.33-3.59,2.99-3.58,5.98,.09,47.04,.06,94.07,.06,141.11v4.44ZM80.35,64.4c.99,.6,1.39,.89,1.83,1.11,48.46,24.23,96.92,48.48,145.43,72.61,1.26,.63,3.4,.51,4.71-.13,13.66-6.67,27.23-13.52,40.82-20.32,.71-.36,1.38-.79,2.35-1.34-.85-.51-1.35-.85-1.89-1.12-48.46-24.23-96.91-48.48-145.42-72.61-1.26-.63-3.41-.48-4.72,.16-13.54,6.61-27,13.4-40.48,20.14-.74,.37-1.45,.82-2.63,1.5Zm-54.03,26.8c1.01,.66,1.38,.96,1.8,1.17,48.59,24.31,97.17,48.62,145.81,72.82,1.17,.58,3.16,.41,4.39-.19,10.2-4.95,20.32-10.07,30.46-15.16,.83-.42,1.6-.95,2.79-1.66-1.63-.88-2.79-1.54-3.99-2.13-11.15-5.57-22.3-11.13-33.45-16.7-36.45-18.22-72.9-36.46-109.38-54.62-1.18-.59-3.01-1.06-4.04-.57-11.32,5.46-22.54,11.13-34.38,17.04Zm299.38,.19c-2.23-1.16-3.65-1.93-5.09-2.65-43.24-21.62-86.48-43.23-129.73-64.84-4.9-2.45-9.83-6.78-14.74-6.75-5.05,.03-10.1,4.28-15.11,6.74-5.56,2.73-11.09,5.54-16.77,8.39,.51,.44,.67,.65,.88,.75,48.9,24.47,97.8,48.93,146.72,73.34,.89,.44,2.3,.72,3.1,.33,10.04-4.9,20.02-9.94,30.73-15.31Zm-89.89,119.84c1.34-1.78,2.1-2.72,2.78-3.71,5.82-8.39,11.62-16.8,17.45-25.19,4.15-5.97,8.13-6.63,14.15-2.37,4.33,3.06,8.64,6.14,13.32,9.46v-58.52c-.34-.07-.49-.16-.57-.12-15.16,7.53-30.33,15.04-45.44,22.68-.83,.42-1.62,1.87-1.62,2.85-.1,17.94-.07,35.89-.07,54.92Z"/>
  </g>
</svg>