<?xml version="1.0" encoding="UTF-8"?>
<svg id="Layer_2" data-name="Layer 2" xmlns="http://www.w3.org/2000/svg" viewBox="0 0 509.79 510.73">
  <g id="Layer_1-2" data-name="Layer 1">
    <g>
      <path d="M506.75,124.09c-7.7-49.9-32.45-87.54-79.42-108.67-19.14-8.61-39.57-12.2-60.43-13.44-11.92-.7-23.84-1.33-35.76-1.99H178.43c-12.26,.67-24.54,1.17-36.79,2.03-30.69,2.17-59.71,9.65-84.77,28.45C27.63,52.43,10.41,82.1,5.13,117.85,1.74,140.78,.34,164.18,.15,187.39c-.44,55.21,.17,110.43,.76,165.64,.28,26.6,3.79,52.81,15.28,77.18,18.68,39.6,50.09,63.58,92.38,73.85,26.11,6.34,52.8,6.44,79.35,6.59,54.05,.29,108.1-.22,162.15-.77,23.85-.24,47.53-2.63,70-11.38,46.92-18.27,74.49-52.95,84.63-101.75,2.29-11.01,2.83-22.38,4.19-33.59,.28-2.29,.6-4.57,.9-6.85V150.71c-1-8.87-1.68-17.79-3.04-26.61Zm-43.14,221.14c-.28,16.35-1.63,33.08-5.53,48.88-9.66,39.11-36.31,61.66-75.6,66.58-28.6,3.58-57.7,3.24-86.59,4.28-13.46,.48-26.94,.08-40.42,.08,0,.26-.01,.52-.02,.79-36.74-.9-73.49-1.52-110.21-2.83-19.28-.69-38-4.82-54.65-15.16-24.63-15.29-37.87-38.45-40.58-66.54-2.76-28.74-3.53-57.74-3.85-86.64-.46-40.91-.13-81.84,.74-122.74,.36-17.04,1.49-34.34,4.9-50.99,7.92-38.6,34.47-63.18,73.19-70,25.35-4.46,51.01-4.13,76.6-4.22,44.74-.15,89.49-.28,134.21,.46,17.88,.3,36.03,1.35,53.5,4.83,40.47,8.07,66.1,35.87,71.32,76.86,2.62,20.56,3.6,41.43,3.73,62.17,.32,51.39,.12,102.79-.76,154.17Z"/>
      <path d="M255.47,124.34c-72.32-.3-131.42,58.61-131.53,131.09-.11,72.35,58.82,131.33,131.3,131.4,72.21,.07,130.76-58.35,131.21-130.92,.45-72.29-58.27-131.27-130.98-131.57Zm-.46,216.25c-47.08-.1-84.9-38.06-84.83-85.14,.07-47.11,37.94-84.95,85.02-84.95,47.32,0,85.27,38.1,85.08,85.39-.19,47.11-38.13,84.8-85.27,84.69Z"/>
      <path d="M392.31,88.57c-16.95-.3-30.88,12.92-31.22,29.64-.35,17.12,13.09,31.23,29.98,31.48,16.97,.25,30.73-12.89,31.14-29.73,.42-17.26-12.75-31.09-29.89-31.39Z"/>
    </g>
  </g>
</svg>