<?xml version="1.0" encoding="UTF-8"?>
<svg id="Layer_2" data-name="Layer 2" xmlns="http://www.w3.org/2000/svg" viewBox="0 0 360.84 367.04">
  <g id="Layer_1-2" data-name="Layer 1">
    <path d="M149.12,333.77c-1.88,0-3.34,0-4.81,0-41.04,0-82.08,.02-123.12-.01-11.03,0-18.67-5.81-20.76-15.66-.36-1.69-.41-3.47-.41-5.21C0,231.98,0,151.08,0,70.18c0-12.42,8.15-20.62,20.61-20.78,5.96-.08,11.92-.01,18.29-.01,0-9.58-.06-18.79,.04-28.01,.03-2.48,.1-5.08,.85-7.39C42.34,6.18,47.73,1.46,55.95,.29,57.67,.05,59.43,0,61.17,0,153.6,0,246.04,0,338.47,.03c2.72,0,5.54,.13,8.15,.82,8.75,2.32,14.2,9.98,14.21,19.67,.02,38.76,.01,77.52,.01,116.29,0,41.89,0,83.78,0,125.66,0,14.03-7.73,21.83-21.7,21.91-5.59,.03-11.18,0-17.21,0,0,8.58,.02,16.79-.01,24.99-.01,2.75,.16,5.55-.31,8.23-1.65,9.38-9.22,15.95-18.87,16.07-15.72,.2-31.43,.08-47.15,.09-1.47,0-2.94,0-4.95,0,0,5.55,0,10.75,0,15.95,0,3.63,.05,7.25-.01,10.88-.07,4.66-1.69,6.37-6.34,6.4-10.48,.07-20.96,.03-31.43,.03-18.46,0-36.92,0-55.39,0-7.29,0-8.35-1.09-8.35-8.54,0-8.09,0-16.19,0-24.71Zm3.53-59.14l.05-.96c-1.02-.37-2.05-.73-3.07-1.1-6.95-2.49-9.5-8.82-5.91-15.33,16.34-29.62,32.74-59.2,49.19-88.76,3.5-6.28,10.3-6.27,13.88-.05,3.11,5.41,6.07,10.91,9.1,16.36,13.31,24.02,26.64,48.02,39.91,72.06,3.85,6.97,1.39,13.2-6.04,15.81-.97,.34-1.9,.78-2.85,1.17,1.23,.67,2.31,.78,3.38,.78,29.56,0,59.13,.02,88.69,0,8.72,0,12.11-3.49,12.11-12.36,0-61.89,0-123.78,0-185.67v-4.28c-2.06,0-3.66,0-5.26,0-59.25,0-118.5-.02-177.75,.05-4.3,0-7.65-1.29-10.58-4.48-5.84-6.33-11.81-12.56-17.95-18.6-1.31-1.29-3.57-2.25-5.41-2.28-12.97-.19-25.94-.1-38.92-.1h-4.62c0,5.34,.03,10.19,0,15.04-.05,6.86-3.49,10.3-10.41,10.35-6.24,.05-12.47,.01-18.71,.01-4.19,0-8.37,0-12.82,0v4.57c0,61.64,0,123.28,0,184.92,0,9.63,3.16,12.81,12.76,12.81,29.19,0,58.38,0,87.57,0,1.22,0,2.44,0,3.65,0Zm14.34,22.1c-.25-2.39-.32-4.35-.67-6.25-1.09-5.94-1.21-6-7.17-6-32.67,0-65.35,.02-98.02,0-14.51-.01-22.21-7.72-22.21-22.16,0-66.13,0-132.26,0-198.39,0-1.45,0-2.9,0-4.73-6.05,0-11.64-.02-17.22,0-8.44,.04-11.95,3.62-11.95,12.19,0,80.13,0,160.26,0,240.39,0,8.83,3.38,12.23,12.19,12.23,41.03,0,82.06,0,123.09,0,1.31,0,2.62-.11,4.1-.18,0-5.82-.12-11.19,.03-16.56,.19-6.53,4.19-10.39,10.66-10.53,2.21-.05,4.43,0,7.18,0ZM48.69,62.29h32.22c0-5.01-.02-9.76,0-14.5,.04-7.22,3.36-10.64,10.47-10.65,14.97-.03,29.94,.04,44.9-.05,3.63-.02,6.47,1.17,8.95,3.8,6,6.36,12.18,12.55,18.12,18.96,1.86,2.01,3.75,2.77,6.49,2.77,59-.08,118-.06,177-.06h4.26c0-13.48,0-26.46,0-39.44,0-10.19-3.03-13.27-13.06-13.27-92.05,0-184.11,0-276.16,0-1.37,0-2.75-.02-4.11,.1-5.17,.47-8.97,4.11-9.03,9.25-.14,14.25-.05,28.49-.05,43.08Zm199.18,200.56c-14.11-25.53-28.12-50.86-42.13-76.2-.33,.07-.66,.14-.99,.21,0,6.16,.14,12.33-.06,18.48-.1,3.01,.56,4.87,3.46,6.52,5.76,3.28,8.14,10.33,6.34,16.61-1.87,6.53-7.67,11.05-14.33,11.18-6.83,.13-12.38-3.76-14.55-10.18-2.21-6.54-.35-13.98,5.42-17.18,3.76-2.09,4.09-4.62,3.99-8.13-.16-5.77-.04-11.54-.04-17.31-.33-.06-.66-.11-.98-.17-13.98,25.25-27.96,50.49-42,75.85,16.08,5.84,24.4,17.06,24.9,33.95h46.01c.69-16.94,8.78-28.17,24.97-33.61Zm-88.63,94.03h81.43v-50.2h-81.43v50.2Zm91.39-33.06c18.12,0,35.79,.12,53.46-.09,4.11-.05,7.8-3.97,7.91-8.23,.26-10.21,.09-20.44,.09-31.11-6.8,0-13.38,0-19.96,0-17.83,0-35.65-.04-53.48,.08-1.34,0-3.5,.8-3.84,1.75-1.13,3.17-1.61,6.58-2.47,10.47,2.83,0,4.67-.01,6.51,0,7.91,.06,11.7,3.79,11.78,11.68,.05,4.99,0,9.98,0,15.46Zm-50.87-93.99c2.96,.02,5.42-2.42,5.46-5.44,.05-3.02-2.38-5.53-5.33-5.52-2.95,0-5.35,2.46-5.38,5.5-.03,3.28,2.04,5.44,5.25,5.47Z"/>
    <path d="M156.07,134.92h-9.21c-9.11,0-18.22,.14-27.32-.06-5.18-.11-9.19-.02-12.36,5.76-3.83,6.98-14.42,8.93-22.13,5.78-8.27-3.38-12.91-11.66-11.72-20.91,1.06-8.27,7.64-14.61,16.54-15.93,8.18-1.22,16.87,3.19,19.69,11.02,1.47,4.08,3.52,4.65,7.28,4.62,19.33-.18,38.67-.08,58.01-.08h4.62c0-2.76-.1-5.23,.02-7.68,.27-5.4,3.48-9.09,8.85-9.3,7.72-.3,15.47-.31,23.19,.03,5.31,.23,8.49,4.04,8.69,9.44,.09,2.34,.01,4.7,.01,7.31,1.6,.08,2.81,.2,4.01,.2,20.21,.01,40.42-.03,60.63,.05,2.54,.01,3.82-.52,4.75-3.26,2.93-8.63,11.51-13.59,20.35-12.31,9.69,1.41,16.27,8.2,17.03,17.58,.73,9.06-4.73,17.09-13.42,19.72-9.05,2.74-18.07-.97-22.76-9.15-.67-1.18-2.16-2.68-3.28-2.69-14.45-.18-28.9-.12-44.4-.12,1.5,1.05,2.17,1.61,2.92,2.03,23.76,13.39,39.52,33.17,47.06,59.43,.72,2.49,1.62,3.63,4.28,3.35,1.84-.2,3.75-.06,5.6,.14,4.87,.54,8.28,4.03,8.38,8.96,.16,7.62,.18,15.26-.01,22.88-.12,5-3.89,8.73-8.89,8.85-7.6,.18-15.22,.17-22.83,0-4.96-.11-8.67-3.36-8.89-8.38-.36-7.98-.35-16,0-23.98,.21-4.88,3.69-7.86,8.53-8.39,1.36-.15,2.72-.21,4.09-.31-4.81-25.99-30.99-55.2-62.57-61.72-.16,.94-.34,1.88-.49,2.82-.82,4.94-4.16,8.19-9.11,8.3-7.48,.16-14.97,.19-22.45,0-5.62-.15-8.36-3.52-9.48-10.89-24.52,3.93-54.95,28.1-62.93,61.39,1.73,.15,3.42,.25,5.09,.45,4.48,.55,7.97,3.49,8.14,7.9,.33,8.23,.35,16.5,.02,24.73-.19,4.73-3.94,7.97-8.75,8.08-7.61,.17-15.22,.19-22.83,0-5.33-.13-8.9-4.02-8.98-9.54-.11-7.13-.1-14.26-.01-21.38,.07-5.92,3.55-9.47,9.46-9.91,7.29-.54,7.24-.55,9.64-7.64,8.24-24.41,23.67-42.8,46.15-55.27,.64-.35,1.26-.73,1.89-1.1-.03-.27-.06-.55-.1-.82Zm33.25-16.9v21.07h21.27v-21.07h-21.27Zm112.15,112.91v-21.13h-21.25v21.13h21.25Zm-181.51-21.13h-21.14v21h21.14v-21Zm-18.23-81.45c-.11-5.28-4.41-9.46-9.64-9.37-5.23,.09-9.35,4.42-9.25,9.72,.1,5.32,4.33,9.35,9.68,9.23,5.61-.12,9.33-4,9.21-9.58Zm206,9.58c5.67-.09,9.23-3.79,9.17-9.54-.06-5.36-4.23-9.5-9.51-9.42-5.18,.08-9.46,4.5-9.37,9.67,.1,5.18,4.47,9.37,9.71,9.28Z"/>
    <path d="M259.57,22.29c-7.54,0-13.86,6.38-13.79,13.92,.07,7.44,6.19,13.6,13.6,13.7,7.61,.1,13.86-6.06,13.9-13.7,.04-7.66-6.13-13.92-13.71-13.92Zm-.13,22.29c-4.55-.06-8.31-3.85-8.35-8.41-.05-4.64,3.83-8.55,8.46-8.55s8.45,3.84,8.42,8.54c-.02,4.7-3.86,8.48-8.53,8.42Z"/>
    <path d="M292.92,22.29c-7.54,0-13.86,6.38-13.79,13.92,.07,7.44,6.19,13.6,13.6,13.7,7.61,.1,13.86-6.06,13.9-13.7,.04-7.66-6.13-13.92-13.71-13.92Zm-.13,22.29c-4.55-.06-8.31-3.85-8.35-8.41-.05-4.64,3.83-8.55,8.46-8.55s8.45,3.84,8.42,8.54c-.02,4.7-3.86,8.48-8.53,8.42Z"/>
    <path d="M326.09,22.29c-7.54,0-13.86,6.38-13.79,13.92,.07,7.44,6.19,13.6,13.6,13.7,7.61,.1,13.86-6.06,13.9-13.7,.04-7.66-6.13-13.92-13.71-13.92Zm-.13,22.29c-4.55-.06-8.31-3.85-8.35-8.41-.05-4.64,3.83-8.55,8.46-8.55s8.45,3.84,8.42,8.54c-.02,4.7-3.86,8.48-8.53,8.42Z"/>
  </g>
</svg>